<?xml version="1.0" encoding="utf-8"?>
<!-- Generator: Adobe Illustrator 21.1.0, SVG Export Plug-In . SVG Version: 6.00 Build 0)  -->
<svg version="1.1" xmlns="http://www.w3.org/2000/svg" xmlns:xlink="http://www.w3.org/1999/xlink" x="0px" y="0px"
	 viewBox="0 0 2004.5 1015.4" style="enable-background:new 0 0 2004.5 1015.4;" xml:space="preserve">
<style type="text/css">
	.st0{fill:#09202D;}
	.st1{fill:#00B0AC;}
</style>
<g id="logo">
	<polygon class="st0" points="1374.1,294.5 1292.4,422.9 1210.4,294.5 1144.9,294.5 1144.9,589.1 1210.4,589.1 1210.4,416.3 
		1257.7,490.9 1326.6,490.9 1374.1,416.1 1374.1,589.1 1439.7,589.1 1439.7,294.5 	"/>
	<polygon class="st0" points="481,359.9 534.5,294.5 293.6,294.5 293.6,359.7 293.6,425 293.6,490.2 293.6,589.1 359.2,589.1 
		359.2,490.9 481,490.9 480.8,425.4 359.2,425.4 359.2,359.9 	"/>
	<path class="st0" d="M670.3,294.3c-81.4,0-147.4,66-147.4,147.4c0,81.4,66,147.4,147.4,147.4s147.4-66,147.4-147.4
		C817.7,360.3,751.7,294.3,670.3,294.3z M670.3,520.9c-45.2,0-81.9-36.7-81.9-81.9c0-45.2,36.7-81.9,81.9-81.9s81.9,36.7,81.9,81.9
		C752.2,484.2,715.5,520.9,670.3,520.9z"/>
	<path class="st0" d="M1087.9,452.9c8.6-12.4,13.5-27.4,14.5-45.2c0.6-6.6,0.8-13.8,0.2-21.3c-2.3-29.1-7.2-46.7-25.2-66.4
		c-18.7-20.5-39.8-24.8-64.6-25.5l-87.4,0l-64.1,0v294.6h65.5v-98.2h52l49.9,98.2h74.4L1042.1,483
		C1061.5,477.2,1077.8,467.6,1087.9,452.9z M1004.1,428.2c-0.1,0.1-77.3,0-77.3,0V357l74.5,0c0.4,0,5.1,0.2,5.5,0.3
		c17.4,2.1,31,17,31,35.3C1037.7,411.8,1022.8,427.3,1004.1,428.2z"/>
	<g>
		<polygon class="st1" points="1656.7,359.9 1481.8,359.9 1481.8,294.5 1710.9,294.5 		"/>
		<path class="st1" d="M1644,374.1l-42.3,50.4c25.8,1.4,46.9,23.3,46.9,50.1c0,27.7-22.5,49.7-50.2,50.2c-23.4,0.5-45.7-14-52.3-34
			h-64.3c9.1,55.4,59.3,98,116.6,98c62,0,112.3-50.3,112.3-112.3C1710.7,430.8,1683.4,391.5,1644,374.1z"/>
	</g>
	<g>
		<rect x="371.1" y="654.5" class="st0" width="9.7" height="65.5"/>
		<polygon class="st0" points="463.3,720 428,670.1 428,720 418.3,720 418.3,654.5 428.2,654.5 463.6,704.6 463.6,654.5 
			473.2,654.5 473.2,720 		"/>
		<polygon class="st0" points="642.1,720 606.8,670.1 606.8,720 597.1,720 597.1,654.5 607,654.5 642.4,704.6 642.4,654.5 
			652,654.5 652,720 		"/>
		<path class="st0" d="M714.6,720.9c-8.4,0-15.2-2.8-20.3-8.3c-5.1-5.5-7.6-13-7.6-22.3V684c0-6.1,1.2-11.5,3.6-16.1
			c2.4-4.6,5.8-8.2,10.1-10.7c4.3-2.5,9.4-3.7,15.1-3.7c7.5,0,13.7,2,18.3,5.8c4.6,3.9,7.3,9.3,8,16.2l0,0.2H732l0-0.1
			c-0.8-5.1-2.6-8.9-5.2-11.2c-2.7-2.3-6.5-3.5-11.3-3.5c-5.9,0-10.6,2-14,6c-3.4,4-5.1,9.8-5.1,17.2v6.3c0,7,1.6,12.6,4.8,16.8
			c3.2,4.1,7.7,6.2,13.4,6.2c5.2,0,9.2-1.1,11.9-3.2c2.7-2.1,4.6-5.9,5.5-11.2l0-0.1h9.7l0,0.2c-0.9,6.9-3.7,12.3-8.4,16.1
			C728.6,719,722.3,720.9,714.6,720.9z"/>
		<rect x="775.6" y="654.5" class="st0" width="9.7" height="65.5"/>
		<path class="st0" d="M1081.5,720.9c-8.4,0-15.2-2.8-20.3-8.3c-5.1-5.5-7.6-13-7.6-22.3V684c0-6.1,1.2-11.5,3.6-16.1
			c2.4-4.6,5.8-8.2,10.1-10.6c4.3-2.5,9.4-3.7,15.1-3.7c7.6,0,13.7,2,18.3,5.8c4.6,3.9,7.3,9.3,8,16.2l0,0.2h-9.7l0-0.1
			c-0.8-5.1-2.6-8.9-5.2-11.2c-2.7-2.3-6.5-3.5-11.3-3.5c-5.9,0-10.6,2-14,6c-3.4,4-5.1,9.8-5.1,17.2v6.3c0,7,1.6,12.6,4.8,16.8
			c3.2,4.2,7.6,6.2,13.4,6.2c5.2,0,9.2-1.1,11.9-3.2c2.7-2.1,4.6-5.9,5.5-11.2l0-0.1h9.7l0,0.2c-0.9,6.9-3.7,12.3-8.4,16.1
			C1095.6,719,1089.3,720.9,1081.5,720.9z"/>
		<polygon class="st0" points="1141.8,720 1141.8,654.5 1151.5,654.5 1151.5,712.6 1185.2,712.6 1185.2,720 		"/>
		<path class="st0" d="M1239.5,720.9c-5.6,0-10.6-1.3-15-3.8c-4.3-2.5-7.7-6.2-10.1-10.8c-2.4-4.7-3.6-10.2-3.7-16.3v-4.7
			c0-6.3,1.2-11.9,3.6-16.7c2.4-4.8,5.8-8.5,10.1-11.1c4.4-2.6,9.4-3.8,15-3.8c5.7,0,10.8,1.3,15.1,3.8c4.3,2.5,7.7,6.2,10.1,11
			c2.3,4.8,3.5,10.4,3.5,16.8v4.1c0,6.4-1.2,12-3.5,16.8c-2.3,4.8-5.7,8.5-10,11C1250.3,719.6,1245.2,720.9,1239.5,720.9z
			 M1239.4,661.3c-5.9,0-10.5,2.1-13.9,6.1c-3.4,4.1-5.1,9.8-5.2,17.1v4.8c0,7.4,1.7,13.3,5.1,17.5c3.4,4.2,8.1,6.4,14.1,6.4
			c6,0,10.7-2,14-6c3.3-4,5-9.8,5.1-17.3v-4.8c0-7.6-1.7-13.6-5-17.7C1250.2,663.4,1245.4,661.3,1239.4,661.3z"/>
		<path class="st0" d="M1326.2,720c-7.8,0-14.1-1.9-18.7-5.7c-4.6-3.8-7-9.1-7.1-15.8v-44h9.6v43.7c0,4.6,1.4,8.2,4.2,10.7
			c2.8,2.5,6.8,3.8,12,3.8c5.2,0,9.3-1.3,12.1-3.8c2.8-2.5,4.2-6.1,4.2-10.7v-43.8h9.7v43.9c0,6.1-2.2,11.2-6.4,15
			c-4.2,3.9-9.9,6.1-17.1,6.5L1326.2,720z"/>
		<path class="st0" d="M1387.4,720v-65.5h20.2c6.2,0,11.7,1.3,16.5,3.8c4.8,2.5,8.5,6.1,11.1,10.8c2.6,4.6,3.9,10,4,16v4.2
			c0,6.1-1.3,11.6-3.9,16.2c-2.6,4.6-6.3,8.2-11.1,10.7c-4.8,2.5-10.5,3.8-16.8,3.8H1387.4z M1397.1,712.6h9.7
			c7.2,0,12.8-2.1,16.8-6.1c4-4.1,6-9.9,6-17.5v-3.8c0-7.3-1.9-13.1-5.6-17.1c-3.8-4.1-9.1-6.1-16-6.2h-10.8V712.6z"/>
		<polygon class="st0" points="293.8,720 293.8,654.5 338.2,654.5 338.2,664.3 303.5,664.3 303.5,682.7 328.5,682.3 328.5,692.2 
			303.5,692.5 303.5,720 		"/>
		<path class="st0" d="M557.3,720l-6.3-15.7h-30.7l-6.2,15.7h-10l27.3-65.5h8.4l27.3,65.5H557.3z M524.3,694.4h22.8l-11.4-28.8
			L524.3,694.4z"/>
		<path class="st0" d="M869.8,720l-6.2-15.7h-30.7l-6.2,15.7h-10l27.3-65.5h8.4l27.3,65.5H869.8z M836.8,694.4h22.8l-11.4-28.8
			L836.8,694.4z"/>
		<polygon class="st0" points="909.6,720 909.6,654.5 919.3,654.5 919.3,710.1 953,710.1 953,720 		"/>
	</g>
</g>
<g id="guidelines">
</g>
</svg>
